inDegrees=yes
name=ik_S51_A09_T02
DataType=double
version=3
OpenSimVersion=4.3-2021-08-27-4bc7ad9
endheader
time	pelvis_tilt	pelvis_list	pelvis_rotation	pelvis_tx	pelvis_ty	pelvis_tz	hip_flexion_r	hip_adduction_r	hip_rotation_r	knee_angle_r	knee_angle_r_beta	ankle_angle_r	subtalar_angle_r	mtp_angle_r	hip_flexion_l	hip_adduction_l	hip_rotation_l	knee_angle_l	knee_angle_l_beta	ankle_angle_l	subtalar_angle_l	mtp_angle_l	lumbar_extension	lumbar_bending	lumbar_rotation	arm_flex_r	arm_add_r	arm_rot_r	elbow_flex_r	pro_sup_r	wrist_flex_r	wrist_dev_r	arm_flex_l	arm_add_l	arm_rot_l	elbow_flex_l	pro_sup_l	wrist_flex_l	wrist_dev_l
6.039999999999959	-4.8151353972409	-0.5652274362690878	27.47391764325048	0	0.9399999999999999	0	32.796493662485	-12.27497787140198	-9.53632318602293	51.84297019097114	0.9048305238457197	0	0	0	32.796493662485	-12.27497787140198	-9.53632318602293	51.84297019097114	0.9048305238457197	0	0	0	-3.424040390104795	-1.815906505442122	1.278381626898103	26.25041288197907	-57.60559340783616	-9.71633468507072	166.8873960224242	13.42561570375301	0	0	56.61378808217964	-3.556439419497873	-10.43764633508642	40.38076757187046	123.0125842562109	0	0
6.059999999999959	-4.817190020053975	-0.5484755988084019	27.46839028103581	0	0.9399999999999999	0	32.82374586336641	-12.26331772051014	-9.538153671403526	51.84799091372213	0.9049181519885544	0	0	0	32.82374586336641	-12.26331772051014	-9.538153671403526	51.84799091372213	0.9049181519885544	0	0	0	-3.420154002327248	-1.79303399920496	1.258010398247796	26.28110262295578	-57.62377090767724	-9.653475694791437	166.8283914498164	13.3962743420717	0	0	56.57915514742024	-3.597381084531502	-10.50362969340509	40.41943725189626	122.9510326821426	0	0
6.079999999999958	-4.818656364841037	-0.5323687202341929	27.42498489861193	0	0.9399999999999999	0	32.83490316879702	-12.25624354657979	-9.53907703777285	51.84987850613159	0.9049510966910351	0	0	0	32.83490316879702	-12.25624354657979	-9.53907703777285	51.84987850613159	0.9049510966910351	0	0	0	-3.414446051405096	-1.777640152101398	1.294576342160328	25.57493425736811	-57.56360610155121	-10.12132796007511	167.050917469109	13.58642023376782	0	0	56.56389936619211	-3.619300327808873	-10.61714144663056	40.37511667436765	123.0457051027972	0	0
6.099999999999958	-4.824839598410001	-0.5291089624745137	27.3537239859554	0	0.9399999999999999	0	32.84602170171025	-12.2492066442335	-9.539996486060794	51.8517592868529	0.9049839225071299	0	0	0	32.84602170171025	-12.2492066442335	-9.539996486060794	51.8517592868529	0.9049839225071299	0	0	0	-3.418177827315909	-1.773641103520568	1.362336196976472	24.82524309243994	-57.61478665676449	-10.9342595598444	167.5938548797549	13.0781836556177	0	0	56.5564863097248	-3.656783111894033	-10.66472411552103	40.36094356752047	123.1171631801907	0	0
6.119999999999957	-4.826328727898474	-0.5262515176575078	27.39409494083289	0	0.9399999999999999	0	32.85149886060606	-12.24576321592148	-9.540447617411507	51.85269068786091	0.9050001785213763	0	0	0	32.85149886060606	-12.24576321592148	-9.540447617411507	51.85269068786091	0.9050001785213763	0	0	0	-3.418644946309881	-1.768746825111098	1.355118015369916	24.80867977301918	-57.70012647622187	-10.92542415815927	167.4908594932544	12.26147726596277	0	0	56.53232752954742	-3.667683801080568	-10.64144644222989	40.4042412526294	123.136294027091	0	0
6.139999999999957	-4.829019254100039	-0.5160323849371741	27.42139166160137	0	0.9399999999999999	0	32.85813534414853	-12.2415936777555	-9.540994107479134	51.85381894693125	0.9050198703569691	0	0	0	32.85813534414853	-12.2415936777555	-9.540994107479134	51.85381894693125	0.9050198703569691	0	0	0	-3.416842752938324	-1.756478824999266	1.344398459166495	24.77459625361304	-57.81350257838378	-10.93396530640314	167.4483501748406	11.3348957114454	0	0	56.53110378040694	-3.661249203278905	-10.66398937032466	40.38240722836616	123.1899022843616	0	0
6.159999999999957	-4.836324452907701	-0.5030708114790597	27.44576328332998	0	0.9399999999999999	0	32.86088115704093	-12.23986992029665	-9.541220124760047	51.85428587908704	0.905028019860471	0	0	0	32.86088115704093	-12.23986992029665	-9.541220124760047	51.85428587908704	0.905028019860471	0	0	0	-3.417752887400758	-1.739856704388581	1.327209859169459	24.40042045831747	-57.7163885106986	-10.86072223816533	167.2972037857685	11.16708009070468	0	0	56.42770158371363	-3.772036259546432	-10.70341462164526	40.45286224729325	123.1369741884983	0	0
6.179999999999956	-4.839926755515976	-0.5042365284107587	27.45339682881081	0	0.9399999999999999	0	32.86579098663574	-12.23678364822329	-9.541624659023597	51.85511915396856	0.9050425632507277	0	0	0	32.86579098663574	-12.23678364822329	-9.541624659023597	51.85511915396856	0.9050425632507277	0	0	0	-3.421587889835235	-1.740029308606094	1.355817143724174	24.06558763128605	-57.74009686612754	-11.00395094031787	167.1226779174953	10.97563257661873	0	0	56.42732502366981	-3.731169136773628	-10.66153208378249	40.50359976845385	123.1058673694599	0	0
6.199999999999956	-4.844299602600899	-0.4952943091476299	27.48621036992276	0	0.9399999999999999	0	32.868301673858	-12.23521632089733	-9.541830635267155	51.85554793699027	0.9050500469262333	0	0	0	32.868301673858	-12.23521632089733	-9.541830635267155	51.85554793699027	0.9050500469262333	0	0	0	-3.421514066180145	-1.729821784350331	1.361028724497727	23.97465849605816	-57.80857354178558	-11.04511016485274	166.9551967481882	10.7515558901397	0	0	56.36472598602512	-3.777276621932083	-10.67610131882629	40.50697080682554	123.150446996104	0	0
6.219999999999955	-4.857370405553428	-0.4809555766645888	27.50162931172079	0	0.9399999999999999	0	32.87833553989653	-12.22890031849175	-9.542658391602577	51.857245290085	0.9050796713263052	0	0	0	32.87833553989653	-12.22890031849175	-9.542658391602577	51.857245290085	0.9050796713263052	0	0	0	-3.426898579677276	-1.710239003830885	1.38273404826428	23.36486142873213	-57.68679382637923	-11.51189223683099	167.1061069250833	10.29432791348802	0	0	56.31336432921031	-3.784454992188998	-10.71096414616068	40.49313518168216	123.1508712087059	0	0
6.239999999999955	-4.868583020295421	-0.4549101170513433	27.53444318577607	0	0.9399999999999999	0	32.8886693069346	-12.22240317606775	-9.543510534042509	51.85899245919355	0.9051101651798386	0	0	0	32.8886693069346	-12.22240317606775	-9.543510534042509	51.85899245919355	0.9051101651798386	0	0	0	-3.425651279490229	-1.679162516258682	1.37654457437327	23.13949780746214	-57.64577419850912	-11.67826854398844	167.2422011867532	9.500463079326297	0	0	56.22629545604359	-3.796100912081961	-10.78315353204258	40.4793591024161	123.0722608707206	0	0
